<mxfile host="app.diagrams.net" modified="2024-03-01T17:38:34.276Z" agent="Mozilla/5.0 (Windows NT 10.0; Win64; x64) AppleWebKit/537.36 (KHTML, like Gecko) Chrome/122.0.0.0 Safari/537.36" etag="F92EVgsfANKONEKlanpo" version="24.0.0" type="device">
  <diagram name="Page-1" id="90a13364-a465-7bf4-72fc-28e22215d7a0">
    <mxGraphModel dx="1195" dy="615" grid="1" gridSize="10" guides="1" tooltips="1" connect="1" arrows="1" fold="1" page="1" pageScale="1.5" pageWidth="1169" pageHeight="826" background="none" math="0" shadow="0">
      <root>
        <mxCell id="0" style=";html=1;" />
        <mxCell id="1" style=";html=1;" parent="0" />
        <mxCell id="KOJEUlAhO7yhJw0Px1WD-6" style="edgeStyle=orthogonalEdgeStyle;rounded=0;orthogonalLoop=1;jettySize=auto;html=1;entryX=0.5;entryY=0;entryDx=0;entryDy=0;" edge="1" parent="1" source="3a17f1ce550125da-1" target="KOJEUlAhO7yhJw0Px1WD-7">
          <mxGeometry relative="1" as="geometry">
            <mxPoint x="1030" y="500" as="targetPoint" />
            <Array as="points">
              <mxPoint x="1031" y="374" />
              <mxPoint x="1031" y="462" />
            </Array>
          </mxGeometry>
        </mxCell>
        <mxCell id="3a17f1ce550125da-1" value="TLS" style="whiteSpace=wrap;html=1;shadow=1;fontSize=20;fillColor=#f5f5f5;strokeColor=#666666;strokeWidth=2;dashed=1;" parent="1" vertex="1">
          <mxGeometry x="797" y="344" width="150" height="60" as="geometry" />
        </mxCell>
        <mxCell id="KOJEUlAhO7yhJw0Px1WD-3" value="Action - A&lt;sub&gt;t&lt;/sub&gt;" style="text;html=1;align=center;verticalAlign=middle;resizable=0;points=[];autosize=1;strokeColor=none;fillColor=none;" vertex="1" parent="1">
          <mxGeometry x="1020" y="410" width="80" height="30" as="geometry" />
        </mxCell>
        <mxCell id="KOJEUlAhO7yhJw0Px1WD-9" value="" style="edgeStyle=orthogonalEdgeStyle;rounded=0;orthogonalLoop=1;jettySize=auto;html=1;" edge="1" parent="1" source="KOJEUlAhO7yhJw0Px1WD-7" target="KOJEUlAhO7yhJw0Px1WD-8">
          <mxGeometry relative="1" as="geometry" />
        </mxCell>
        <mxCell id="KOJEUlAhO7yhJw0Px1WD-28" style="edgeStyle=orthogonalEdgeStyle;rounded=0;orthogonalLoop=1;jettySize=auto;html=1;exitX=0;exitY=0.75;exitDx=0;exitDy=0;entryX=0;entryY=0.25;entryDx=0;entryDy=0;" edge="1" parent="1" source="KOJEUlAhO7yhJw0Px1WD-7" target="3a17f1ce550125da-1">
          <mxGeometry relative="1" as="geometry">
            <mxPoint x="840" y="515" as="targetPoint" />
            <Array as="points">
              <mxPoint x="630" y="515" />
              <mxPoint x="630" y="359" />
            </Array>
          </mxGeometry>
        </mxCell>
        <mxCell id="KOJEUlAhO7yhJw0Px1WD-7" value="Environment&lt;div&gt;(traffic_network)&lt;/div&gt;" style="whiteSpace=wrap;html=1;shadow=1;fontSize=20;fillColor=#f5f5f5;strokeColor=#666666;strokeWidth=2;dashed=1;" vertex="1" parent="1">
          <mxGeometry x="947" y="470" width="167" height="60" as="geometry" />
        </mxCell>
        <mxCell id="KOJEUlAhO7yhJw0Px1WD-11" value="" style="edgeStyle=orthogonalEdgeStyle;rounded=0;orthogonalLoop=1;jettySize=auto;html=1;" edge="1" parent="1" target="KOJEUlAhO7yhJw0Px1WD-10">
          <mxGeometry relative="1" as="geometry">
            <mxPoint x="994.5" y="620" as="sourcePoint" />
          </mxGeometry>
        </mxCell>
        <mxCell id="KOJEUlAhO7yhJw0Px1WD-8" value="TRACI" style="ellipse;whiteSpace=wrap;html=1;fontSize=20;fillColor=#f5f5f5;strokeColor=#666666;shadow=1;strokeWidth=2;dashed=1;" vertex="1" parent="1">
          <mxGeometry x="990.5" y="580" width="80" height="80" as="geometry" />
        </mxCell>
        <mxCell id="KOJEUlAhO7yhJw0Px1WD-10" value="SUMO" style="ellipse;whiteSpace=wrap;html=1;fontSize=20;fillColor=#f5f5f5;strokeColor=#666666;shadow=1;strokeWidth=2;dashed=1;" vertex="1" parent="1">
          <mxGeometry x="843" y="580" width="80" height="80" as="geometry" />
        </mxCell>
        <mxCell id="KOJEUlAhO7yhJw0Px1WD-34" style="edgeStyle=orthogonalEdgeStyle;rounded=0;orthogonalLoop=1;jettySize=auto;html=1;entryX=0;entryY=0.5;entryDx=0;entryDy=0;" edge="1" parent="1" target="KOJEUlAhO7yhJw0Px1WD-10">
          <mxGeometry relative="1" as="geometry">
            <mxPoint x="628" y="620" as="sourcePoint" />
          </mxGeometry>
        </mxCell>
        <mxCell id="KOJEUlAhO7yhJw0Px1WD-12" value="sumocfg file" style="whiteSpace=wrap;html=1;shape=mxgraph.basic.document" vertex="1" parent="1">
          <mxGeometry x="570" y="570" width="100" height="100" as="geometry" />
        </mxCell>
        <mxCell id="KOJEUlAhO7yhJw0Px1WD-19" value="uses TRACI to apply action" style="text;html=1;align=center;verticalAlign=middle;resizable=0;points=[];autosize=1;strokeColor=none;fillColor=none;" vertex="1" parent="1">
          <mxGeometry x="952" y="538" width="170" height="30" as="geometry" />
        </mxCell>
        <mxCell id="KOJEUlAhO7yhJw0Px1WD-22" value="Reward" style="text;html=1;align=center;verticalAlign=middle;resizable=0;points=[];autosize=1;strokeColor=none;fillColor=none;" vertex="1" parent="1">
          <mxGeometry x="860" y="468" width="60" height="30" as="geometry" />
        </mxCell>
        <mxCell id="KOJEUlAhO7yhJw0Px1WD-23" value="Next State - S&lt;span style=&quot;font-size: 10px;&quot;&gt;t+1&lt;/span&gt;" style="text;html=1;align=center;verticalAlign=middle;resizable=0;points=[];autosize=1;strokeColor=none;fillColor=none;" vertex="1" parent="1">
          <mxGeometry x="829" y="493" width="110" height="30" as="geometry" />
        </mxCell>
        <mxCell id="KOJEUlAhO7yhJw0Px1WD-26" value="" style="edgeStyle=orthogonalEdgeStyle;rounded=0;orthogonalLoop=1;jettySize=auto;html=1;" edge="1" parent="1">
          <mxGeometry relative="1" as="geometry">
            <mxPoint x="945" y="490" as="sourcePoint" />
            <mxPoint x="797" y="390" as="targetPoint" />
            <Array as="points">
              <mxPoint x="660" y="490" />
              <mxPoint x="660" y="390" />
              <mxPoint x="797" y="390" />
            </Array>
          </mxGeometry>
        </mxCell>
        <mxCell id="KOJEUlAhO7yhJw0Px1WD-32" value="" style="endArrow=classic;html=1;rounded=0;" edge="1" parent="1">
          <mxGeometry width="50" height="50" relative="1" as="geometry">
            <mxPoint x="902" y="580" as="sourcePoint" />
            <mxPoint x="952" y="530" as="targetPoint" />
          </mxGeometry>
        </mxCell>
        <mxCell id="KOJEUlAhO7yhJw0Px1WD-14" value="SUMO uses the scenario file" style="text;html=1;align=center;verticalAlign=middle;resizable=0;points=[];autosize=1;strokeColor=none;fillColor=none;" vertex="1" parent="1">
          <mxGeometry x="662" y="597" width="180" height="30" as="geometry" />
        </mxCell>
        <mxCell id="KOJEUlAhO7yhJw0Px1WD-35" value="return the&amp;nbsp;&lt;div&gt;new state&lt;/div&gt;" style="text;html=1;align=center;verticalAlign=middle;resizable=0;points=[];autosize=1;strokeColor=none;fillColor=none;" vertex="1" parent="1">
          <mxGeometry x="859" y="538" width="80" height="40" as="geometry" />
        </mxCell>
        <mxCell id="KOJEUlAhO7yhJw0Px1WD-36" value="run 1&lt;div&gt;simulation&lt;/div&gt;&lt;div&gt;step&lt;/div&gt;" style="text;html=1;align=center;verticalAlign=middle;resizable=0;points=[];autosize=1;strokeColor=none;fillColor=none;" vertex="1" parent="1">
          <mxGeometry x="920" y="613" width="80" height="60" as="geometry" />
        </mxCell>
      </root>
    </mxGraphModel>
  </diagram>
</mxfile>
